# xmcd CD database file
#
# Track frame offsets:
#	150
#	26894
#	52589
#	66790
#	81749
#	102860
#	126220
#	141542
#	155195
#	166540
#
# Disc length: 2437 seconds
#
# Revision: 0
# Processed by: cddbd v1.5.2PL0 Copyright (c) Steve Scherf et al.
# Submitted via: CDex 1.51
#
DISCID=8909830a
DTITLE=Joe Bataan - Mr. New York and the East Side Kids
DYEAR=1971
DGENRE=Salsa
TTITLE0=My Opera
TTITLE1=Aguanta La Lengua
TTITLE2=Chili Beans
TTITLE3=When We Get Married
TTITLE4=The Prayer
TTITLE5=Puerto Rico Me Llama
TTITLE6=Es Tu Cosa
TTITLE7=Make Me Smile
TTITLE8=More Today Than Yesterday
TTITLE9=Juan Juan Lechero
EXTD=YEAR: 1971
EXTT0=
EXTT1=
EXTT2=
EXTT3=
EXTT4=
EXTT5=
EXTT6=
EXTT7=
EXTT8=
EXTT9=
PLAYORDER=
